<?xml version="1.0" encoding="utf-8"?>
<!-- Generator: Adobe Illustrator 23.0.1, SVG Export Plug-In . SVG Version: 6.00 Build 0)  -->
<svg version="1.1" id="Layer_1" xmlns="http://www.w3.org/2000/svg" xmlns:xlink="http://www.w3.org/1999/xlink" x="0px" y="0px"
	 viewBox="0 0 2000 1000" style="enable-background:new 0 0 2000 1000;" xml:space="preserve">
<style type="text/css">
	.st0{fill:#ECBE1C;}
</style>
<rect width="2000" height="1000"/>
<g>
	<g>
		<path class="st0" d="M337.8,766.9c-0.3-9.9-0.4-19.2-0.4-27.7v-89.5h-59.5v119.5H158.8V590.5h178.8c-0.1-8.5-1.2-16.5-3.4-24
			c-2.4-8.4-6.7-15.6-12.8-21.7c-6.1-6.1-15.5-10-28.3-11.7c-4.5-0.6-9.1-1-13.6-1.3c-4.5-0.3-10.5-0.5-17.9-0.6
			c-7.4-0.1-16.8-0.2-28.3-0.2h-72.5c-9.9,0-19.3,1.3-28.1,3.8c-8.8,2.6-16.2,7-22.3,13.4c-6.1,6.4-9.3,15.9-9.6,28.7
			c-0.9,35.4-1.1,70.2-0.9,104.4c0.3,34.2,0.4,69,0.4,104.4c0,11.3,3,19.9,8.9,25.7c5.9,5.8,13.4,9.9,22.3,12.1
			c8.9,2.3,18.5,3.5,28.7,3.6c10.2,0.1,19.6,0.2,28.1,0.2c18.4,0,35.7,0.2,51.9,0.4s33.9,0,53.2-0.9c12.8-0.6,22.2-3.8,28.3-9.8
			c6.1-6,10.3-13.3,12.8-22.2C337,786.2,338.1,776.9,337.8,766.9z"/>
		<path class="st0" d="M556,530.6v238.2H436.9V530.6h-59.5v221.2c0,7.1-0.1,14.5-0.2,22.1c-0.2,7.7,0.8,15.2,2.8,22.6
			c2.3,8.8,5.7,15.2,10.2,19.3c4.5,4.1,11.2,7.6,20,10.4c2.3,0.9,7.6,1.4,16,1.7c8.4,0.3,17.4,0.4,27,0.4h87.2
			c9.9,0,19.2-0.1,27.9-0.4c8.7-0.3,14.1-0.9,16.4-1.7c8.5-2.8,14.9-6.7,19.4-11.5c4.4-4.8,7.7-11.6,10-20.4
			c0.3-1.1,0.5-3.8,0.6-7.9c0.1-4.1,0.3-8.6,0.4-13.4c0.1-4.8,0.3-9.3,0.4-13.4c0.1-4.1,0.2-6.7,0.2-7.9V530.6H556z"/>
		<path class="st0" d="M886,530.6H647.9v59.5h158.6L647.9,768.7v59.5H886v-59.5H727.8L886,590.1V530.6z"/>
		<path class="st0" d="M1153.6,530.6H915.4v59.5H1074L915.4,768.7v59.5h238.2v-59.5H995.3l158.2-178.6V530.6z"/>
		<path class="st0" d="M1246.3,768.3V530.2h-59.5v297.7h193.9v-59.5H1246.3z"/>
		<path class="st0" d="M1413.8,768.7v59.5h223.3v-59.5H1413.8z M1607.3,718.8v-55.1h-193.5v55.1H1607.3z M1413.8,530.6v58.7h223.3
			v-58.7H1413.8z"/>
		<path class="st0" d="M1878.7,715.6c6.2-4,10.8-8.5,13.8-13.6c3-5.1,4.9-11.3,5.7-18.7c1.4-13.6,2-26.5,1.7-38.7
			c-0.3-12.2-0.4-24.9-0.4-38.3v-28.5c0-6.8-1.3-13.1-3.8-18.9c-2.6-5.8-6-10.9-10.2-15.3s-9.3-7.8-15.1-10.2
			c-5.8-2.4-12.1-3.6-18.9-3.6h-185v59.5h172.3v74.4h-172.3v163.7h59.5V723.2h46.4l57.8,104.2h68l-57.8-104.2
			c6.8,0,13.3-0.2,19.6-0.6C1866.2,722.2,1872.4,719.8,1878.7,715.6z"/>
	</g>
	<g>
		<path class="st0" d="M702.7,320.3l-50.6,63h-12.5l-0.6,0.1c-25.5-45.8-80.2-77.4-143.6-77.4c-85.2,0-154.8,57.2-158.6,128.9
			l-2.7,0.5l-176.6,44L143.6,450l183.2-56.4l-168.5,38.1l48.4-33.7l90.8-25.6c0,0,105.1-119.2,314.7-88.7c6.1,0.9,12.4,1.9,18.7,3.1
			l0.5,0.1c3.4,0.6,7,1.3,10.5,2l37.4,34.7L702.7,320.3z"/>
		<path class="st0" d="M669.7,379l37.7-53.5l1.8,11c0,0,14.3,1.1,20.9-2.9l-38.5-40.7h24.9l23.4,27.8c0,0,2.2,2.2-6.2,10.6
			c0,0,20.4-7.6,6.5-17.2l446.7-55.3l36.6,30l-377.4,62.3l-29.3-2.2L669.7,379z"/>
		<polygon class="st0" points="901.2,348.1 1200.9,344.5 1214.1,304.2 		"/>
		<polygon class="st0" points="1192.9,258.8 1239,282.9 1461,244.5 1761.1,223.6 1817.1,202.7 1751.2,215.9 1479.7,212.6 
			1377.5,235.7 		"/>
		<path class="st0" d="M1209.9,343.4l22-42.3l234.3-42.3l163.4-19.4l116.1-12.5l-129.3,41.4c0,0-106.2-25.6-181,69.6L1209.9,343.4z"
			/>
		<polygon class="st0" points="1828.9,337.9 1726.3,337.9 1708.4,321.1 1690.4,304.2 1690.7,304.1 1806.9,270.5 		"/>
		<path class="st0" d="M1458.1,211.9c0,0-486.8-125.3-876.4,66.8l49.6,8.1c0,0,277.4-190.1,792.3-61.5L1458.1,211.9z"/>
		<path class="st0" d="M1279.1,212c0,0-374.2-55.5-546.8,40.1C732.3,252.2,1202.7,237.9,1279.1,212z"/>
		<path class="st0" d="M679.6,288.8l8.8-20.2l42.1-12.5l24.5,10.6l-4,22l-24.9,8.8L707.4,284C707.4,284,680.7,296.9,679.6,288.8z"/>
		<path class="st0" d="M1708.4,321.1l-18.1-17l0.4-0.1C1697.2,309.3,1703.1,315,1708.4,321.1z"/>
	</g>
</g>
</svg>
