<?xml version="1.0" encoding="utf-8"?>
<!-- Generator: Adobe Illustrator 23.0.1, SVG Export Plug-In . SVG Version: 6.00 Build 0)  -->
<svg version="1.1" id="Layer_1" xmlns="http://www.w3.org/2000/svg" xmlns:xlink="http://www.w3.org/1999/xlink" x="0px" y="0px"
	 viewBox="0 0 2400 800" style="enable-background:new 0 0 2400 800;" xml:space="preserve">
<style type="text/css">
	.st0{display:none;}
	.st1{fill:#EABC1E;}
</style>
<rect x="200" y="-301.3" class="st0" width="2000" height="1000"/>
<g>
	<g>
		<path class="st1" d="M592.2,524.8V337.6H467.7v249.9h-249V214.1h373.9V89.6H393.2l0.1,0c-5.8,0-11.9,0-18.4,0H223.2
			c-20.8,0-40.3,2.7-58.7,8c-18.4,5.4-33.9,14.7-46.7,28c-12.8,13.3-19.4,33.3-20,60c-1.8,74.1-2.4,146.9-1.8,218.3
			c0.6,71.4,0.9,144.2,0.9,218.3c0,23.7,6.2,41.6,18.7,53.8c12.4,12.2,28,20.6,46.7,25.3c18.7,4.8,38.7,7.3,60,7.6
			c21.3,0.3,40.9,0.4,58.7,0.4c38.5,0,74.7,0.3,108.5,0.9c33.8,0.6,70.8,0,111.2-1.8c26.7-1.2,46.4-8,59.1-20.5
			c12.7-12.5,21.6-27.9,26.7-46.3c5-18.4,7.2-38,6.7-58.8C592.5,562,592.2,542.7,592.2,524.8z"/>
		<polygon class="st1" points="692.3,213.3 1024,213.3 692.3,586.7 692.3,711.2 1190.2,711.2 1190.2,586.7 859.5,586.7 
			1190.2,213.3 1190.2,88.8 692.3,88.8 		"/>
		<polygon class="st1" points="1431,88.8 1306.5,88.8 1306.5,711.2 1712,711.2 1712,586.7 1431,586.7 		"/>
		<path class="st1" d="M2259.5,477.4c13-8.3,22.7-17.8,28.9-28.5c6.2-10.7,10.2-23.7,12-39.1c3-28.5,4.2-55.4,3.6-80.9
			c-0.6-25.5-0.9-52.2-0.9-80v-59.6c0-14.2-2.7-27.4-8-39.6c-5.3-12.1-12.5-22.8-21.3-32c-8.9-9.2-19.4-16.3-31.6-21.3
			c-12.2-5-25.3-7.6-39.6-7.6h-386.8v124.5H2176v155.6h-360.1v342.3h124.5V493.4h96.9l120.9,217.8h142.3l-120.9-217.8
			c14.2,0,27.9-0.5,40.9-1.3C2233.5,491.2,2246.5,486.2,2259.5,477.4z"/>
	</g>
</g>
</svg>
