<?xml version="1.0" encoding="utf-8"?>
<!-- Generator: Adobe Illustrator 23.0.1, SVG Export Plug-In . SVG Version: 6.00 Build 0)  -->
<svg version="1.1" id="Layer_1" xmlns="http://www.w3.org/2000/svg" xmlns:xlink="http://www.w3.org/1999/xlink" x="0px" y="0px"
	 viewBox="0 0 2000 2000" style="enable-background:new 0 0 2000 2000;" xml:space="preserve">
<style type="text/css">
	.st0{fill:#765DA7;}
</style>
<g>
	<polygon class="st0" points="1034.9,872.7 1041,872.7 1041,902.5 1034.9,909.4 	"/>
	<rect x="1034.9" y="992.2" class="st0" width="6.1" height="29.9"/>
	<polygon class="st0" points="1055.7,872.7 1175.2,872.7 1175.2,902.5 1095.8,992.2 1175.2,992.2 1175.2,1022.1 1055.7,1022.1 
		1055.7,992.2 1135.3,902.5 1055.7,902.5 	"/>
	<polygon class="st0" points="1221.8,992 1289.2,992 1289.2,1021.9 1191.9,1021.9 1191.9,872.4 1221.8,872.4 	"/>
	<rect x="1305.9" y="939.5" class="st0" width="97.1" height="27.7"/>
	<rect x="1305.9" y="872.7" class="st0" width="112.1" height="29.5"/>
	<rect x="1305.9" y="992.2" class="st0" width="112.1" height="29.9"/>
	<path class="st0" d="M1549.9,929.9c0.1,6.1-0.2,12.6-0.9,19.4c-0.4,3.7-1.4,6.8-2.9,9.4c-1.5,2.6-3.8,4.8-6.9,6.8
		c-3.1,2.1-6.3,3.3-9.4,3.5c-3.1,0.2-6.4,0.3-9.8,0.3l29,52.3h-34.2l-29-52.3h-23.3v52.3h-29.9v-82.2h86.5v-37.3h-86.5v-29.9h92.9
		c3.4,0,6.6,0.6,9.5,1.8c2.9,1.2,5.5,2.9,7.6,5.1c2.1,2.2,3.8,4.8,5.1,7.7c1.3,2.9,1.9,6.1,1.9,9.5v14.3
		C1549.7,917.3,1549.7,923.8,1549.9,929.9z"/>
	<rect x="1600.2" y="870.3" class="st0" width="36" height="74.3"/>
	<rect x="1600.2" y="987.2" class="st0" width="36" height="68.8"/>
	<g>
		<path class="st0" d="M303.8,1061.5C303.8,1061.5,303.8,1061.5,303.8,1061.5l96.1,0v-74.3h-98.6c0,0,0,0,0,0
			c0.2-14.3,0.9-28.5,2.1-42.6h96.6v-74.3h-86.7c54.2-288.9,286.2-515.2,578.1-560.8V169.8c-411,53.3-728.5,404.7-728.5,830.2
			c0,425.6,317.5,777,728.5,830.3v-139.8C576.7,1641.3,331.8,1382.5,303.8,1061.5z"/>
		<path class="st0" d="M1108.8,169.8v139.7c291.9,45.6,523.9,271.9,578.1,560.8h-86.7v74.3h96.6c1.1,14.1,1.8,28.3,2.1,42.6h-98.6
			v74.3h96.1c-28,321.1-273,579.9-587.4,629v139.8c411-53.3,728.5-404.7,728.5-830.3C1837.3,574.5,1519.8,223.1,1108.8,169.8z"/>
		<path class="st0" d="M1539.9,1179.7h16.8v-62c0,0,0,0,0,0h0v-58.2H938.5v120.2h462.4c-68.7,152.9-222.3,259.4-400.8,259.4
			c-242.6,0-439.2-196.6-439.2-439.2c0-242.5,196.6-439.2,439.2-439.2c185.5,0,344,115,408.3,277.6h137.2
			c-69.7-235.4-287.6-407.3-545.6-407.3c-314.3,0-568.9,254.7-568.9,568.8c0,314.3,254.7,568.9,568.9,568.9
			C1251.4,1568.9,1464.7,1405.8,1539.9,1179.7z"/>
	</g>
	<g>
		<path class="st0" d="M765.6,977.4v-44.9h-29.9v60h-59.8v-89.7h89.8c-0.1-4.2-0.6-8.3-1.7-12.1c-1.2-4.2-3.4-7.8-6.4-10.9
			c-3.1-3.1-7.8-5-14.2-5.9c-2.3-0.3-4.5-0.5-6.8-0.6c-2.3-0.1-5.3-0.2-9-0.3c-3.7-0.1-8.4-0.1-14.2-0.1H677c-5,0-9.7,0.6-14.1,1.9
			c-4.4,1.3-8.1,3.5-11.2,6.7c-3.1,3.2-4.7,8-4.8,14.4c-0.4,17.8-0.6,35.3-0.4,52.4c0.1,17.2,0.2,34.6,0.2,52.4
			c0,5.7,1.5,10,4.5,12.9c3,2.9,6.7,5,11.2,6.1c4.5,1.1,9.3,1.7,14.4,1.8c5.1,0.1,9.8,0.1,14.1,0.1c9.2,0,17.9,0.1,26,0.2
			c8.1,0.1,17,0,26.7-0.4c6.4-0.3,11.1-1.9,14.2-4.9c3.1-3,5.2-6.7,6.4-11.1c1.2-4.4,1.7-9.1,1.6-14.1
			C765.7,986.3,765.6,981.6,765.6,977.4z"/>
		<path class="st0" d="M875.3,872.7v119.5h-59.8V872.7h-29.9v111c0,3.6,0,7.3-0.1,11.1c-0.1,3.8,0.4,7.6,1.4,11.3
			c1.1,4.4,2.8,7.6,5.1,9.7c2.3,2.1,5.6,3.8,10,5.2c1.1,0.4,3.8,0.7,8,0.8c4.2,0.1,8.7,0.2,13.6,0.2h43.8c5,0,9.6-0.1,14-0.2
			c4.4-0.1,7.1-0.4,8.2-0.8c4.3-1.4,7.5-3.4,9.7-5.8c2.2-2.4,3.9-5.8,5-10.2c0.1-0.6,0.3-1.9,0.3-4c0.1-2.1,0.1-4.3,0.2-6.7
			c0.1-2.4,0.1-4.7,0.2-6.7c0.1-2.1,0.1-3.4,0.1-4v-111H875.3z"/>
		<path class="st0" d="M1041,902.5v-29.9H921.4v29.9h79.6l-79.6,89.7v29.9H1041v-29.9h-79.4l73.3-82.8L1041,902.5z"/>
		<path class="st0" d="M1175.2,872.7h-119.5v29.9h79.6l-79.6,89.7v29.9h119.5v-29.9h-79.4l79.4-89.7V872.7z"/>
		<path class="st0" d="M1221.8,992V872.4h-29.9v149.4h97.3V992H1221.8z"/>
		<path class="st0" d="M1305.9,872.7v29.5H1418v-29.5H1305.9z M1305.9,939.5v27.7h97.1v-27.7H1305.9z M1305.9,992.2v29.9H1418v-29.9
			H1305.9z"/>
		<path class="st0" d="M1539.2,965.5c3.1-2,5.4-4.3,6.9-6.8c1.5-2.5,2.5-5.7,2.9-9.4c0.7-6.8,1-13.3,0.9-19.4
			c-0.2-6.1-0.2-12.5-0.2-19.2v-14.3c0-3.4-0.6-6.6-1.9-9.5c-1.3-2.9-3-5.5-5.1-7.7c-2.1-2.2-4.7-3.9-7.6-5.1
			c-2.9-1.2-6.1-1.8-9.5-1.8h-92.9v29.9h86.5v37.3h-86.5v82.2h29.9v-52.3h23.3l29,52.3h34.2l-29-52.3c3.4,0,6.7-0.1,9.8-0.3
			C1533,968.8,1536.1,967.6,1539.2,965.5z"/>
	</g>
</g>
</svg>
